<svg xmlns="http://www.w3.org/2000/svg" id="Layer_1" viewBox="0 0 131.26 104.33"><defs><style>.cls-1{fill:#fff;}.cls-2{fill:#ffef00;}.cls-3{fill:#004990;}</style></defs><path class="cls-3" d="M131.26,100.34c0,2.2-1.72,3.99-3.82,3.99H3.82c-2.1,0-3.82-1.8-3.82-3.99V3.99C0,1.8,1.72,0,3.82,0H127.44c2.1,0,3.82,1.8,3.82,3.99V100.34Z"></path><g><path class="cls-1" d="M35.21,74.17h-13.82l-1.99,6.15h-6.43l10.65-32.03h9.13l10.82,32.03h-6.31l-2.04-6.15Zm-1.41-4.48l-5.54-16.68-5.44,16.68h10.98Z"></path><path class="cls-1" d="M76.06,48.29v32.03h-10.3l-9.15-17.57c-.45-.88-1.16-2.41-2.13-4.6l-1.03-2.3-1.01-2.3h-.23l.09,2.11,.07,2.09,.05,4.2v18.37h-6.08V48.29h10.3l8.33,16.24c.73,1.44,1.59,3.18,2.56,5.23l1.22,2.6,1.22,2.63h.21l-.07-2.06-.07-2.06-.05-4.13v-18.44h6.08Z"></path><path class="cls-1" d="M81.69,80.31V48.29h15.74c3.69,0,6.21,.59,7.54,1.77,1.34,1.18,2.01,3.41,2.01,6.68,0,3.96-1.57,6.29-4.72,6.99v.12c3.66,.56,5.49,3.11,5.49,7.63,0,3.27-.7,5.56-2.11,6.87-1.41,1.31-3.86,1.97-7.37,1.97h-16.59Zm6.08-18.58h7.44c2.41,0,3.95-.27,4.61-.8,.66-.53,1-1.76,1-3.68,0-2.56-1.46-3.85-4.36-3.85h-8.68v8.33Zm0,13.47h6.66l2.13-.05c2.05,0,3.4-.29,4.05-.87,.65-.58,.97-1.8,.97-3.66s-.34-3.16-1.02-3.66c-.68-.5-2.36-.75-5.03-.75h-7.77v8.99Z"></path><path class="cls-1" d="M118.25,48.29v32.03h-6.08V48.29h6.08Z"></path></g><g><path class="cls-1" d="M53.69,18.26c.22,1.13,1.35,6.5,1.65,7.56-.15-.02-.31-.04-.51-.04s-.36,.02-.5,.04c-.08-.78-.38-2.38-.5-2.93-.22-.01-.86-.03-1.49-.03-.49,0-.98,.02-1.47,.03-.4,.59-1.4,2.23-1.76,2.93-.1-.02-.2-.04-.36-.04-.12,0-.26,.02-.43,.04,1.3-1.84,2.56-3.69,3.81-5.56,.56-.84,.95-1.38,1.34-2h.21Zm-.57,1.33h-.04l-1.94,2.88c.42,.02,.86,.03,1.3,.03s.86-.01,1.3-.03l-.61-2.88Z"></path><path class="cls-1" d="M57.27,25.83c-.11-.02-.26-.04-.46-.04-.19,0-.32,.02-.45,.04,.73-2.62,1.52-6.54,1.76-8.13,.12,.02,.23,.04,.42,.04,.17,0,.36-.02,.52-.04-.17,.58-1.5,6.27-1.79,8.13Z"></path><path class="cls-1" d="M60.29,23.85c-.18-.08-.81-.34-.81-1.22,0-1.02,.85-2.05,2.45-2.05,.37,0,.52,.04,.85,.13,.2,.05,.34,.05,.57,.05,.27,0,.82-.03,1.11-.04,0,.07-.02,.14-.02,.23s.02,.16,.02,.23c-.54-.03-.79-.04-1.06-.05,.12,.15,.31,.4,.31,.89,0,.61-.32,1.37-1.07,1.77-.52,.28-1.15,.3-1.51,.3-.25,0-.48-.01-.65-.02-.12,.08-.46,.26-.46,.6,0,.43,.47,.45,.83,.45,1.27,.01,1.67,.01,2.08,.25,.41,.24,.49,.67,.49,.95,0,.84-.74,2.36-2.88,2.36-.53,0-1.04-.09-1.41-.38-.29-.23-.52-.61-.52-1.03,0-.51,.31-.99,.74-1.25,.25-.15,.46-.23,.58-.27v-.08c-.16-.04-.61-.17-.61-.63,0-.67,.63-.95,.96-1.1v-.08Zm.37,4.49c1.34,0,2-.92,2-1.7,0-.85-.92-.88-1.52-.88-.29,0-.84,.02-1.23,.27-.55,.35-.63,.89-.63,1.16,0,.81,.66,1.14,1.37,1.14Zm.72-4.56c1.08,0,1.49-1.18,1.49-1.85s-.38-1.03-.98-1.03c-1.13,0-1.53,1.16-1.53,1.79,0,.83,.56,1.09,1.03,1.09Z"></path><path class="cls-1" d="M68.77,25.45c-.55,.31-1.19,.48-1.82,.48-.96,0-2.23-.51-2.23-2.24s1.16-3.1,2.87-3.1c1.06,0,2,.47,2,1.78,0,.4-.08,.7-.12,.88-.83-.04-1.14-.05-2.47-.05-.42,0-1.01,.01-1.35,.02-.02,.14-.06,.35-.06,.63,0,1.41,.99,1.68,1.62,1.68,.86,0,1.41-.39,1.67-.58h.03l-.15,.49Zm-3.04-2.66c.46,.03,1.06,.04,1.52,.04,.43,0,1.07,0,1.49-.04,.03-.13,.07-.3,.07-.59,0-.97-.63-1.29-1.21-1.29s-1.53,.38-1.87,1.88Z"></path><path class="cls-1" d="M71.96,21.49h.02c.26-.26,.83-.87,1.84-.87,1.07,0,1.27,.67,1.37,1.05,.35-.42,.93-1.05,1.95-1.05,.97,0,1.45,.61,1.45,1.15,0,.23-.08,.6-.17,1.01l-.43,1.98c-.13,.62-.16,.89-.18,1.06-.12-.02-.27-.04-.43-.04s-.34,.02-.48,.04c.19-.53,.87-3.16,.87-3.74,0-.61-.42-.96-1.02-.96s-1.33,.35-1.6,1.24c-.18,.59-.58,2.62-.72,3.46-.12-.02-.29-.04-.42-.04-.17,0-.34,.02-.48,.04,.25-.75,.85-3.16,.85-3.83s-.55-.87-.99-.87c-.25,0-1.21,.08-1.6,1.26-.18,.54-.62,2.77-.69,3.43-.12-.02-.28-.04-.45-.04-.16,0-.32,.02-.45,.04,.37-1.25,.96-3.94,1.12-5.15,.09,.02,.26,.04,.39,.04,.16,0,.31-.02,.46-.04l-.22,.81Z"></path><path class="cls-1" d="M83.68,25.45c-.55,.31-1.19,.48-1.82,.48-.96,0-2.23-.51-2.23-2.24s1.16-3.1,2.87-3.1c1.06,0,2,.47,2,1.78,0,.4-.08,.7-.12,.88-.83-.04-1.14-.05-2.47-.05-.42,0-1,.01-1.35,.02-.02,.14-.06,.35-.06,.63,0,1.41,1,1.68,1.62,1.68,.86,0,1.41-.39,1.67-.58h.03l-.15,.49Zm-3.04-2.66c.46,.03,1.06,.04,1.52,.04,.43,0,1.07,0,1.49-.04,.03-.13,.07-.3,.07-.59,0-.97-.63-1.29-1.21-1.29s-1.53,.38-1.87,1.88Z"></path><path class="cls-1" d="M89.27,25.45c-.55,.31-1.19,.48-1.82,.48-.96,0-2.23-.51-2.23-2.24s1.16-3.1,2.87-3.1c1.06,0,2,.47,2,1.78,0,.4-.08,.7-.12,.88-.83-.04-1.14-.05-2.47-.05-.43,0-1.01,.01-1.35,.02-.02,.14-.06,.35-.06,.63,0,1.41,1,1.68,1.62,1.68,.86,0,1.41-.39,1.67-.58h.03l-.15,.49Zm-3.04-2.66c.46,.03,1.06,.04,1.52,.04,.43,0,1.07,0,1.49-.04,.03-.13,.07-.3,.07-.59,0-.97-.63-1.29-1.21-1.29s-1.53,.38-1.87,1.88Z"></path><path class="cls-1" d="M92.51,21.48l.04,.02c.31-.38,1-.88,1.84-.88,.79,0,1.57,.43,1.57,1.3,0,.28-.02,.39-.26,1.37-.12,.51-.46,2.08-.5,2.53-.12-.02-.27-.04-.43-.04-.17,0-.36,.02-.49,.04,.17-.49,.84-2.98,.84-3.73,0-.65-.55-.97-1.11-.97-.37,0-1.28,.17-1.62,1.16-.26,.75-.72,3.18-.77,3.53-.11-.02-.26-.04-.41-.04s-.32,.02-.45,.04c.3-1,.98-4.27,1.13-5.15,.11,.02,.25,.04,.4,.04,.13,0,.29-.02,.42-.04l-.21,.8Z"></path><path class="cls-1" d="M102.24,18.28c.65,1.13,3.72,5.48,4.27,6.1,.19-.68,.94-4.18,1.15-6,.1,.02,.26,.04,.39,.04,.14,0,.22-.02,.34-.04-.41,1.39-1.57,6.55-1.69,7.56h-.16c-.35-.6-3.81-5.49-4.27-6.05-.32,1.28-1.1,4.93-1.17,5.93-.11-.02-.23-.04-.38-.04-.12,0-.28,.02-.39,.04,.51-1.49,1.61-6.57,1.78-7.54h.13Z"></path><path class="cls-1" d="M112.62,25.09l-.04-.04c-.36,.41-.98,.9-1.9,.9-.74,0-1.57-.45-1.57-1.25,0-.27,.15-.84,.35-1.72,.09-.38,.34-1.52,.44-2.3,.13,.02,.3,.04,.49,.04s.34-.02,.48-.04c-.3,1.09-.87,3.11-.87,3.71,0,.67,.4,1.04,1.09,1.04,.86,0,1.44-.6,1.67-1.26,.28-.81,.7-3.29,.74-3.49,.16,.02,.3,.04,.45,.04,.17,0,.32-.02,.46-.04-.22,.72-.98,3.84-1.13,5.15-.13-.02-.26-.04-.4-.04-.17,0-.31,.02-.43,.04l.2-.74Z"></path><path class="cls-1" d="M117.34,19.32c-.14,.5-.26,1-.37,1.5,.35,0,.77-.03,1.16-.04-.04,.15-.07,.29-.07,.45-.39-.01-.85-.04-1.19-.04l-.44,2.04c-.1,.47-.26,1.17-.26,1.52,0,.58,.47,.79,.79,.79,.26,0,.52-.09,.74-.22l-.02,.28c-.3,.23-.77,.34-1.14,.34-.58,0-1.2-.35-1.2-1.02,0-.28,.08-.61,.16-.97,.32-1.49,.38-1.65,.6-2.77-.21,0-.49,.01-.74,.02,.04-.12,.07-.21,.07-.42,.24,.01,.53,.04,.72,.04l.2-1.15,.97-.35Z"></path><path class="cls-1" d="M28.69,34.02c1.3,.12,1.68,.9,1.68,1.47,0,.79-.52,1.65-1.44,2.1-.74,.36-1.6,.39-2.01,.39-.22,0-1.21-.04-1.41-.04-.21,0-.36,.02-.5,.04,.57-2.1,1.31-5.53,1.62-7.44,.16,.01,.4,.04,.59,.04,.43,0,.94-.04,1.45-.04,.62,0,1.04,.08,1.37,.25,.52,.27,.69,.76,.69,1.12,0,1.09-1.12,1.88-2.02,2.04l-.02,.08Zm-.59,.21c-.23-.03-.51-.04-.77-.04-.2,0-.44,0-.63,.01-.3,1.39-.53,2.5-.67,3.35,.28,.05,.55,.05,.72,.05,.37,0,.95-.03,1.43-.23,.69-.28,1.26-1.08,1.26-1.87s-.6-1.17-1.34-1.27Zm.39-3.34c-.34,0-.68,.01-1.02,.04-.38,1.52-.51,2.09-.68,2.88,.17,.02,.33,.03,.58,.03,.39,0,1.06-.03,1.56-.33,.62-.36,.89-.98,.89-1.51,0-.8-.58-1.12-1.34-1.12Z"></path><path class="cls-1" d="M35.61,37.59c-.55,.31-1.19,.48-1.82,.48-.96,0-2.22-.51-2.22-2.24s1.16-3.1,2.87-3.1c1.06,0,2,.47,2,1.78,0,.4-.08,.7-.12,.88-.83-.04-1.14-.05-2.47-.05-.42,0-1.01,.01-1.35,.02-.02,.14-.06,.35-.06,.63,0,1.41,.99,1.68,1.62,1.68,.86,0,1.41-.39,1.67-.58h.03l-.15,.49Zm-3.04-2.66c.46,.03,1.06,.04,1.52,.04s1.08,0,1.49-.04c.03-.13,.07-.3,.07-.59,0-.97-.63-1.29-1.21-1.29s-1.53,.38-1.87,1.88Z"></path><path class="cls-1" d="M40.26,32.73c1.77,0,2.38,1.02,2.38,2.12,0,1.6-1.24,3.24-3.16,3.24s-2.34-1.25-2.34-2.18c0-1.55,1.19-3.17,3.12-3.17Zm-.82,5.01c1.69,0,2.31-2.01,2.31-3.09,0-.9-.53-1.58-1.49-1.58-1.62,0-2.25,1.88-2.25,3.09,0,.91,.41,1.58,1.42,1.58Z"></path><path class="cls-1" d="M44.53,36c-.18-.08-.81-.34-.81-1.22,0-1.02,.85-2.05,2.45-2.05,.37,0,.53,.04,.85,.13,.2,.05,.33,.05,.57,.05,.27,0,.82-.03,1.11-.04,0,.07-.02,.14-.02,.23s.02,.16,.02,.23c-.54-.03-.79-.04-1.06-.05,.12,.15,.31,.4,.31,.89,0,.61-.32,1.37-1.07,1.77-.53,.28-1.15,.3-1.51,.3-.25,0-.48-.01-.65-.02-.12,.08-.46,.26-.46,.6,0,.44,.47,.45,.83,.45,1.26,.01,1.67,.01,2.08,.25,.41,.24,.49,.67,.49,.95,0,.84-.74,2.36-2.89,2.36-.53,0-1.04-.09-1.41-.38-.29-.23-.52-.61-.52-1.03,0-.51,.31-.99,.74-1.25,.25-.15,.46-.23,.58-.27v-.08c-.16-.04-.6-.17-.6-.63,0-.67,.63-.95,.96-1.1v-.08Zm.37,4.49c1.34,0,2-.92,2-1.7,0-.85-.92-.88-1.52-.88-.29,0-.84,.02-1.23,.27-.55,.35-.63,.89-.63,1.16,0,.81,.66,1.14,1.38,1.14Zm.72-4.56c1.09,0,1.49-1.18,1.49-1.85s-.38-1.03-.98-1.03c-1.13,0-1.53,1.16-1.53,1.79,0,.83,.56,1.09,1.03,1.09Z"></path><path class="cls-1" d="M53.01,37.59c-.55,.31-1.19,.48-1.82,.48-.96,0-2.23-.51-2.23-2.24s1.16-3.1,2.87-3.1c1.06,0,2,.47,2,1.78,0,.4-.08,.7-.12,.88-.83-.04-1.14-.05-2.47-.05-.43,0-1.01,.01-1.35,.02-.02,.14-.06,.35-.06,.63,0,1.41,1,1.68,1.62,1.68,.86,0,1.41-.39,1.67-.58h.03l-.15,.49Zm-3.04-2.66c.46,.03,1.06,.04,1.52,.04,.44,0,1.07,0,1.49-.04,.03-.13,.07-.3,.07-.59,0-.97-.63-1.29-1.21-1.29s-1.53,.38-1.87,1.88Z"></path><path class="cls-1" d="M56.25,33.63l.04,.02c.31-.38,1-.88,1.85-.88,.79,0,1.57,.44,1.57,1.3,0,.28-.02,.39-.26,1.37-.12,.51-.46,2.08-.5,2.53-.12-.02-.27-.04-.43-.04-.17,0-.36,.02-.49,.04,.17-.49,.84-2.98,.84-3.73,0-.65-.55-.97-1.11-.97-.37,0-1.29,.17-1.62,1.16-.26,.75-.72,3.18-.77,3.53-.11-.02-.26-.04-.41-.04s-.32,.02-.45,.04c.3-1,.98-4.27,1.13-5.15,.11,.02,.25,.04,.4,.04,.13,0,.29-.02,.42-.04l-.21,.8Z"></path><path class="cls-1" d="M64.88,37.01c-.37,.46-.89,1.11-1.99,1.11-1.35,0-2.01-1-2.01-2.12,0-1.37,.95-3.25,2.92-3.25,1.2,0,1.53,.73,1.69,1.08h.04c.27-1.37,.58-2.79,.77-3.98,.12,.02,.28,.04,.45,.04s.31-.02,.44-.04c-.65,2.58-.88,3.77-1.36,6.06-.11,.53-.27,1.34-.38,2.06-.1-.02-.19-.04-.38-.04s-.3,.02-.42,.04l.25-.97Zm-1.76,.69c1.69,0,2.17-2.13,2.17-3.08,0-.43-.15-1.48-1.36-1.48-1.74,0-2.16,2.09-2.16,2.92,0,1.05,.49,1.63,1.35,1.63Z"></path><path class="cls-1" d="M71.24,37.59c-.55,.31-1.18,.48-1.82,.48-.96,0-2.23-.51-2.23-2.24s1.16-3.1,2.87-3.1c1.06,0,2,.47,2,1.78,0,.4-.08,.7-.12,.88-.83-.04-1.14-.05-2.47-.05-.42,0-1.01,.01-1.35,.02-.02,.14-.06,.35-.06,.63,0,1.41,.99,1.68,1.62,1.68,.86,0,1.41-.39,1.67-.58h.03l-.15,.49Zm-3.04-2.66c.46,.03,1.06,.04,1.52,.04s1.07,0,1.49-.04c.03-.13,.07-.3,.07-.59,0-.97-.63-1.29-1.21-1.29s-1.53,.38-1.87,1.88Z"></path><path class="cls-1" d="M77.64,30.53c.13,.02,.32,.04,.48,.04,.18,0,.37-.02,.51-.04-.6,2.23-1.3,5.44-1.63,7.44-.13-.02-.3-.04-.49-.04-.17,0-.36,.02-.5,.04,.57-2.1,1.31-5.53,1.63-7.44Z"></path><path class="cls-1" d="M80.7,33.63l.04,.02c.31-.38,1-.88,1.84-.88,.79,0,1.57,.44,1.57,1.3,0,.28-.02,.39-.26,1.37-.12,.51-.46,2.08-.5,2.53-.12-.02-.27-.04-.42-.04-.17,0-.36,.02-.49,.04,.17-.49,.84-2.98,.84-3.73,0-.65-.55-.97-1.11-.97-.37,0-1.29,.17-1.62,1.16-.26,.75-.72,3.18-.77,3.53-.11-.02-.26-.04-.41-.04s-.32,.02-.45,.04c.3-1,.98-4.27,1.13-5.15,.11,.02,.25,.04,.4,.04,.13,0,.29-.02,.42-.04l-.21,.8Z"></path><path class="cls-1" d="M88.41,33.69c-.11-.4-.49-.64-.92-.64-.65,0-1.06,.53-1.06,1.03,0,.53,.46,.74,.96,.96,.47,.21,1.01,.45,1.01,1.15,0,1-1.01,1.9-2.3,1.9-.46,0-.82-.09-1.21-.31,.17-.26,.29-.57,.36-.73h.08c.17,.43,.61,.65,1.11,.65,.85,0,1.22-.64,1.22-1.12s-.3-.62-.89-.89c-.48-.22-1.02-.47-1.02-1.25,0-.74,.55-1.75,2.05-1.75,.4,0,.66,.07,1.02,.22-.23,.49-.26,.64-.29,.78h-.1Z"></path><path class="cls-1" d="M91.85,31.47c-.15,.5-.26,1-.37,1.5,.35,0,.77-.03,1.16-.04-.04,.15-.07,.29-.07,.45-.39-.01-.85-.04-1.18-.04l-.44,2.04c-.1,.47-.26,1.17-.26,1.52,0,.58,.47,.79,.79,.79,.26,0,.51-.09,.74-.22l-.02,.28c-.3,.23-.77,.34-1.14,.34-.58,0-1.2-.35-1.2-1.02,0-.28,.08-.61,.16-.97,.33-1.49,.38-1.65,.61-2.77-.21,0-.49,.01-.74,.02,.04-.12,.07-.21,.07-.42,.23,.01,.53,.04,.71,.04l.2-1.15,.97-.35Z"></path><path class="cls-1" d="M96.94,37.59c-.55,.31-1.19,.48-1.82,.48-.96,0-2.23-.51-2.23-2.24s1.16-3.1,2.87-3.1c1.06,0,2,.47,2,1.78,0,.4-.08,.7-.12,.88-.83-.04-1.14-.05-2.47-.05-.43,0-1.01,.01-1.36,.02-.02,.14-.05,.35-.05,.63,0,1.41,1,1.68,1.62,1.68,.86,0,1.41-.39,1.67-.58h.03l-.15,.49Zm-3.04-2.66c.46,.03,1.06,.04,1.52,.04s1.07,0,1.49-.04c.03-.13,.07-.3,.07-.59,0-.97-.63-1.29-1.21-1.29s-1.53,.38-1.87,1.88Z"></path><path class="cls-1" d="M99.32,37.97c-.11-.02-.26-.04-.46-.04-.19,0-.32,.02-.45,.04,.73-2.62,1.52-6.54,1.76-8.13,.12,.02,.23,.04,.42,.04,.17,0,.36-.02,.52-.04-.17,.58-1.5,6.27-1.79,8.13Z"></path><path class="cls-1" d="M102.02,37.97c-.11-.02-.26-.04-.46-.04-.19,0-.33,.02-.45,.04,.73-2.62,1.52-6.54,1.75-8.13,.12,.02,.24,.04,.42,.04,.17,0,.36-.02,.52-.04-.17,.58-1.5,6.27-1.79,8.13Z"></path><path class="cls-1" d="M104.74,37.97c-.17-.02-.35-.04-.51-.04-.18,0-.32,.02-.44,.04,.49-1.54,1.1-4.74,1.15-5.15,.17,.02,.31,.04,.47,.04,.17,0,.32-.02,.46-.04-.21,.72-.98,3.86-1.13,5.15Zm1.05-7.39c.3,0,.54,.24,.54,.52s-.23,.52-.54,.52-.54-.24-.54-.52,.23-.52,.54-.52Z"></path><path class="cls-1" d="M108.26,33.63l.04,.02c.31-.38,1-.88,1.84-.88,.79,0,1.57,.44,1.57,1.3,0,.28-.02,.39-.26,1.37-.12,.51-.46,2.08-.5,2.53-.12-.02-.27-.04-.42-.04-.17,0-.36,.02-.49,.04,.17-.49,.84-2.98,.84-3.73,0-.65-.55-.97-1.11-.97-.37,0-1.29,.17-1.62,1.16-.26,.75-.72,3.18-.77,3.53-.11-.02-.26-.04-.41-.04s-.32,.02-.45,.04c.3-1,.98-4.27,1.13-5.15,.11,.02,.25,.04,.4,.04,.13,0,.29-.02,.42-.04l-.21,.8Z"></path><path class="cls-1" d="M113.95,36c-.18-.08-.8-.34-.8-1.22,0-1.02,.85-2.05,2.45-2.05,.37,0,.52,.04,.85,.13,.2,.05,.33,.05,.57,.05,.27,0,.82-.03,1.11-.04,0,.07-.02,.14-.02,.23s.02,.16,.02,.23c-.54-.03-.79-.04-1.06-.05,.12,.15,.31,.4,.31,.89,0,.61-.32,1.37-1.07,1.77-.52,.28-1.15,.3-1.51,.3-.25,0-.48-.01-.65-.02-.12,.08-.46,.26-.46,.6,0,.44,.47,.45,.83,.45,1.26,.01,1.67,.01,2.08,.25,.41,.24,.49,.67,.49,.95,0,.84-.74,2.36-2.88,2.36-.53,0-1.04-.09-1.41-.38-.29-.23-.51-.61-.51-1.03,0-.51,.31-.99,.74-1.25,.25-.15,.46-.23,.58-.27v-.08c-.16-.04-.6-.17-.6-.63,0-.67,.63-.95,.96-1.1v-.08Zm.37,4.49c1.34,0,2-.92,2-1.7,0-.85-.92-.88-1.52-.88-.29,0-.84,.02-1.23,.27-.55,.35-.63,.89-.63,1.16,0,.81,.66,1.14,1.38,1.14Zm.72-4.56c1.08,0,1.49-1.18,1.49-1.85s-.38-1.03-.98-1.03c-1.13,0-1.53,1.16-1.53,1.79,0,.83,.56,1.09,1.03,1.09Z"></path></g><rect class="cls-2" x="10.14" y="90.02" width="111.34" height="4.45" rx="2.04" ry="2.04"></rect></svg>